<svg width="19.724731" height="22.000000" viewBox="0 0 19.7247 22" fill="none" xmlns="http://www.w3.org/2000/svg" xmlns:xlink="http://www.w3.org/1999/xlink">
	<desc>
			Created with Pixso.
	</desc>
	<defs/>
	<path id="Vector" d="M14.39 5C14.37 4.91 14.35 4.83 14.33 4.75C14.06 3.7 13.65 2.55 12.97 1.65C12.27 0.71 11.25 0 9.86 0C8.46 0 7.44 0.71 6.74 1.65C6.07 2.55 5.65 3.7 5.39 4.75C5.37 4.83 5.35 4.91 5.33 5L3.73 5C2.15 5 0.84 6.22 0.74 7.8L0 18.8C-0.11 20.53 1.26 22 3 22L16.72 22C18.45 22 19.83 20.53 19.71 18.8L18.98 7.8C18.87 6.22 17.57 5 15.99 5L14.39 5ZM5.33 13.5C5.9 13.5 6.86 9.56 6.86 8.99C6.86 8.97 6.86 8.95 6.86 8.92C6.86 8.87 6.86 8.79 6.86 8.69C6.87 8.48 6.89 8.18 6.92 7.83C6.94 7.57 6.97 7.29 7 7L12.71 7C12.75 7.29 12.78 7.57 12.8 7.83C12.83 8.18 12.84 8.48 12.85 8.69C12.85 8.79 12.86 8.87 12.86 8.92C12.86 8.95 12.86 8.97 12.86 9C12.86 9 13.33 13.5 14.33 13.5C15.33 13.5 14.86 8.99 14.86 8.99C14.86 8.96 14.86 8.92 14.86 8.89C14.86 8.82 14.85 8.73 14.85 8.62C14.84 8.38 14.82 8.06 14.79 7.66C14.77 7.46 14.75 7.23 14.73 7L15.99 7C16.51 7 16.95 7.4 16.98 7.93L17.72 18.93C17.76 19.51 17.3 20 16.72 20L3 20C2.42 20 1.96 19.51 2 18.93L2.73 7.93C2.77 7.4 3.2 7 3.73 7L4.99 7C4.96 7.23 4.94 7.46 4.92 7.66C4.89 8.06 4.87 8.38 4.87 8.62C4.86 8.73 4.86 8.82 4.86 8.89C4.86 8.92 4.86 8.96 4.86 8.99C4.86 9.56 4.76 13.5 5.33 13.5ZM7.39 5L12.32 5C12.09 4.15 11.78 3.39 11.37 2.84C10.94 2.28 10.46 2 9.86 2C9.25 2 8.77 2.28 8.34 2.84C7.94 3.39 7.62 4.15 7.39 5Z" fill="#0F0F0F" fill-opacity="1.000000" fill-rule="evenodd"/>
</svg>
