<svg width="128.000000" height="58.000000" viewBox="0 0 128 58" fill="none" xmlns="http://www.w3.org/2000/svg" xmlns:xlink="http://www.w3.org/1999/xlink">
	<desc>
			Created with Pixso.
	</desc>
	<defs>
		<filter id="filter_9_195_dd" x="0.000000" y="0.000000" width="128.000000" height="58.000000" filterUnits="userSpaceOnUse" color-interpolation-filters="sRGB">
			<feFlood flood-opacity="0" result="BackgroundImageFix"/>
			<feColorMatrix in="SourceAlpha" type="matrix" values="0 0 0 0 0 0 0 0 0 0 0 0 0 0 0 0 0 0 127 0" result="hardAlpha"/>
			<feOffset dx="0" dy="4"/>
			<feGaussianBlur stdDeviation="1.33333"/>
			<feComposite in2="hardAlpha" operator="out" k2="-1" k3="1"/>
			<feColorMatrix type="matrix" values="0 0 0 0 0 0 0 0 0 0 0 0 0 0 0 0 0 0 0.25 0"/>
			<feBlend mode="normal" in2="BackgroundImageFix" result="effect_dropShadow_1"/>
			<feBlend mode="normal" in="SourceGraphic" in2="effect_dropShadow_1" result="shape"/>
		</filter>
	</defs>
	<g filter="url(#filter_9_195_dd)">
		<path id="Vector" d="M8.87 1.18L6.59 1.06L5.66 0.86L5.47 0.49C5.47 0.14 5.7 0 6.17 0L29.67 0C40.68 0 48.4 3.53 52.9 10.62C55.48 14.73 56.77 19.6 56.77 25.23C56.77 28.18 56.34 31.02 55.48 33.76C54.49 36.65 53.14 39.2 51.38 41.48C49.46 43.87 47.12 45.73 44.42 47.09C41.54 48.47 38.31 49.19 34.68 49.19L4.72 49.19C4.23 49.19 4 49.01 4 48.72C4 48.4 4.35 48.22 5 48.22L10.74 47.85C11.63 47.73 12.26 47.46 12.57 47.09L13.15 46.22C13.36 45.63 13.48 44.74 13.51 43.53L13.51 4.32C13.51 2.79 12.69 1.85 11.09 1.48L8.87 1.18ZM21.52 1.85L21.35 2.84L21.35 46.37C21.35 46.86 21.44 47.21 21.63 47.33L22.57 47.48L25.66 47.48L32.83 47.21C34.75 46.99 36.39 46.67 37.68 46.22C38.96 45.73 40.18 45.01 41.24 44.14C42.17 43.33 43.13 42.17 44.19 40.68C45.94 38.26 47.21 35.17 47.98 31.39C48.45 28.92 48.68 26.52 48.68 24.22C48.68 22.19 48.4 20.02 47.82 17.67C47 14.28 45.76 11.32 44 8.8C40.6 3.9 35.03 1.48 27.32 1.48L22.57 1.48C22.03 1.43 21.68 1.55 21.52 1.85ZM61.38 48.82C61.33 48.52 61.57 48.4 62.08 48.4L63.72 48.35C64.61 48.22 65.15 47.9 65.36 47.41L65.67 45.63L65.67 31.27C65.67 30.72 65.48 30.3 65.13 30.05L63.91 29.93L62.27 30.4L61.38 30.35C61.26 30.05 61.61 29.78 62.43 29.53C64.38 28.99 66.09 28.3 67.54 27.43C68.43 26.89 69.06 26.59 69.34 26.47L70.05 26.4C70.28 26.44 70.4 26.94 70.4 27.83L70.4 45.92C70.4 46.79 70.58 47.41 70.94 47.78C71.36 48.22 72.34 48.44 73.86 48.44C74.4 48.44 74.68 48.57 74.73 48.84C74.73 49.06 74.57 49.14 74.29 49.14L61.8 49.14C61.52 49.14 61.38 49.01 61.38 48.82ZM116.66 31.02C115.51 32.28 114.74 33.76 114.31 35.54L114.31 46.05C114.31 46.99 114.62 47.65 115.25 48.07L116.68 48.35L118.18 48.52C118.53 48.57 118.67 48.64 118.67 48.84L118.6 49.01L118.2 49.14L105.67 49.14C105.3 49.14 105.09 49.01 105.09 48.82L105.44 48.52L107.55 48.35C108.37 48.2 108.88 47.9 109.16 47.46L109.52 46.34L109.52 31.51L109.28 30.42L108.88 30.18C108.77 30.05 108.58 29.98 108.3 29.93C107.95 29.91 107.52 29.98 107.08 30.18L105.89 30.52L105.21 30.35C105.09 30.18 105.14 30.05 105.3 29.98L106.31 29.54C108.6 28.82 110.45 28.08 111.74 27.31L113.33 26.4L114.04 26.45L114.32 27.06L114.32 32.5C116.07 29.49 117.48 27.63 118.44 27.01C119.02 26.64 119.59 26.35 120.01 26.22L120.83 26.15C121.34 26.1 121.93 26.27 122.58 26.72C123.47 27.26 123.94 28.08 123.99 29.12C124.04 29.98 123.8 30.65 123.29 31.17C122.82 31.59 122.35 31.71 121.93 31.59C121.53 31.51 121.23 31.34 121.02 31.09L120.36 30.23C119.84 29.44 119.35 29.19 118.77 29.41C118.09 29.61 117.38 30.15 116.66 31.02ZM67.7 10.7C66.84 10.7 66.13 11.02 65.55 11.64C64.92 12.26 64.61 13.05 64.66 13.96C64.61 14.83 64.92 15.57 65.55 16.19C66.13 16.81 66.84 17.13 67.7 17.13C68.52 17.13 69.25 16.8 69.83 16.19C70.42 15.57 70.75 14.83 70.75 13.96C70.75 13.05 70.42 12.26 69.83 11.64C69.25 11.02 68.52 10.7 67.7 10.7ZM80.12 30.42C80.96 29.24 82.02 28.25 83.28 27.46C84.41 26.77 85.53 26.32 86.7 26.1L91.03 25.83C92.6 25.9 94.06 26.22 95.37 26.84C98.53 28.32 100.52 31.04 101.27 35C102.04 39 101.39 42.39 99.32 45.13C97.57 47.46 95.25 48.94 92.32 49.58C89.25 50.3 86.4 50.08 83.82 48.96C80.47 47.53 78.43 44.69 77.78 40.53C77.19 36.61 77.96 33.27 80.12 30.42ZM93.84 29.31C92.41 27.63 90.61 26.89 88.43 27.09C86.32 27.31 84.71 28.55 83.65 30.89C82.69 33.02 82.34 35.62 82.69 38.68C82.95 41.72 83.87 44.14 85.34 46C86.91 47.95 88.69 48.77 90.68 48.4C92.77 47.98 94.29 46.79 95.3 44.81C96.28 42.79 96.63 40.17 96.4 36.83C96.12 33.49 95.3 31.02 93.84 29.31Z" fill="#1B1B1B" fill-opacity="1.000000" fill-rule="evenodd"/>
	</g>
	<path id="Vector" d="M61.22 30.4L61.22 30.65L60.7 30.3L60.7 30.42L60.75 30.65L60.68 30.65C60.68 30.6 60.68 30.47 60.68 30.35L60.68 30.18L60.7 30.18L61.17 30.55L61.17 30.18L61.26 30.18L61.22 30.4Z" fill="#1B1B1B" fill-opacity="1.000000" fill-rule="evenodd"/>
	<path id="Vector" d="M62.08 30.23L61.8 30.23L61.8 30.4L62.04 30.4L62.04 30.42L61.8 30.42L61.8 30.6L62.08 30.6L62.08 30.65L61.73 30.65L61.73 30.18L62.08 30.18L62.08 30.23Z" fill="#1B1B1B" fill-opacity="1.000000" fill-rule="evenodd"/>
	<path id="Vector" d="M63.37 30.18L63.39 30.18L63.16 30.65L63.09 30.65L62.9 30.28L62.69 30.65L62.67 30.65C62.55 30.42 62.46 30.28 62.43 30.18L62.55 30.18L62.69 30.55L62.9 30.18L62.97 30.18L63.14 30.55L63.32 30.18L63.37 30.18Z" fill="#1B1B1B" fill-opacity="1.000000" fill-rule="evenodd"/>
	<path id="Vector" d="M64.03 30.42L64.07 30.65L63.96 30.65L63.96 30.48L63.72 30.18L63.84 30.18L64.03 30.42L64.21 30.18L64.31 30.18L64.03 30.42Z" fill="#1B1B1B" fill-opacity="1.000000" fill-rule="evenodd"/>
	<path id="Vector" d="M64.68 30.28C64.73 30.23 64.85 30.18 64.96 30.18C65.08 30.18 65.15 30.23 65.24 30.28C65.27 30.3 65.31 30.35 65.31 30.42L65.24 30.6C65.15 30.65 65.08 30.65 64.96 30.65C64.85 30.65 64.73 30.65 64.68 30.6L64.56 30.42C64.57 30.35 64.61 30.3 64.68 30.28ZM65.15 30.28L64.96 30.23L64.78 30.28C64.73 30.3 64.68 30.35 64.68 30.42C64.68 30.48 64.73 30.52 64.78 30.55L64.96 30.65C65.03 30.65 65.13 30.6 65.15 30.55C65.2 30.52 65.24 30.48 65.24 30.42C65.24 30.35 65.2 30.3 65.15 30.28Z" fill="#1B1B1B" fill-opacity="1.000000" fill-rule="evenodd"/>
	<path id="Vector" d="M65.85 30.23L65.83 30.4L65.9 30.4C66.02 30.4 66.09 30.35 66.09 30.3C66.09 30.28 66.06 30.23 65.95 30.23L65.85 30.23ZM65.97 30.18C66.09 30.18 66.18 30.23 66.18 30.3L66.09 30.4L65.97 30.42L66.25 30.65L66.13 30.65L65.85 30.42L65.83 30.42L65.85 30.65L65.74 30.65L65.74 30.18L65.97 30.18Z" fill="#1B1B1B" fill-opacity="1.000000" fill-rule="evenodd"/>
	<path id="Vector" d="M67.14 30.18L66.84 30.4L67.14 30.65L67.03 30.65L66.77 30.42L66.77 30.4L66.72 30.42L66.77 30.65L66.65 30.65L66.65 30.18L66.77 30.18L66.72 30.4L66.77 30.4L67.07 30.18L67.14 30.18Z" fill="#1B1B1B" fill-opacity="1.000000" fill-rule="evenodd"/>
</svg>
